ISO-10303-21;
HEADER;
/* Generated by software containing ST-Developer
 * from STEP Tools, Inc. (www.steptools.com) 
 */
/* OPTION: strings as raw bytes, not using required /X/ escapes */

FILE_DESCRIPTION(
/* description */ ('Unknown'),
/* implementation_level */ '2;1');

FILE_NAME(
/* name */ 'PK2N-1KQE-SL',
/* time_stamp */ '2025-07-08T08:23:27+02:00',
/* author */ ('Unknown'),
/* organization */ ('Unknown'),
/* preprocessor_version */ 'ST-DEVELOPER v19.4',
/* originating_system */ 'Solid Edge',
/* authorisation */ 'Unknown');

FILE_SCHEMA (('AUTOMOTIVE_DESIGN {1 0 10303 214 3 1 1}'));
ENDSEC;

DATA;
#10=PROPERTY_DEFINITION_REPRESENTATION(#14,#12);
#11=PROPERTY_DEFINITION_REPRESENTATION(#15,#13);
#12=REPRESENTATION('',(#16),#1043);
#13=REPRESENTATION('',(#17),#1043);
#14=PROPERTY_DEFINITION('pmi validation property','',#1048);
#15=PROPERTY_DEFINITION('pmi validation property','',#1048);
#16=VALUE_REPRESENTATION_ITEM('number of annotations',COUNT_MEASURE(0.));
#17=VALUE_REPRESENTATION_ITEM('number of views',COUNT_MEASURE(0.));
#18=SHAPE_REPRESENTATION_RELATIONSHIP('','',#734,#19);
#19=ADVANCED_BREP_SHAPE_REPRESENTATION('',(#732),#1043);
#20=DEGENERATE_TOROIDAL_SURFACE('',#764,0.103162920035404,1.52329995835903,
 .F.);
#21=COLOUR_RGB('',0.699999988079071,0.699999988079071,0.699999988079071);
#22=LINE('',#904,#88);
#23=LINE('',#907,#89);
#24=LINE('',#909,#90);
#25=LINE('',#911,#91);
#26=LINE('',#913,#92);
#27=LINE('',#915,#93);
#28=LINE('',#917,#94);
#29=LINE('',#919,#95);
#30=LINE('',#921,#96);
#31=LINE('',#923,#97);
#32=LINE('',#925,#98);
#33=LINE('',#927,#99);
#34=LINE('',#929,#100);
#35=LINE('',#931,#101);
#36=LINE('',#933,#102);
#37=LINE('',#935,#103);
#38=LINE('',#938,#104);
#39=LINE('',#940,#105);
#40=LINE('',#942,#106);
#41=LINE('',#943,#107);
#42=LINE('',#946,#108);
#43=LINE('',#948,#109);
#44=LINE('',#949,#110);
#45=LINE('',#951,#111);
#46=LINE('',#953,#112);
#47=LINE('',#954,#113);
#48=LINE('',#956,#114);
#49=LINE('',#958,#115);
#50=LINE('',#960,#116);
#51=LINE('',#962,#117);
#52=LINE('',#964,#118);
#53=LINE('',#965,#119);
#54=LINE('',#967,#120);
#55=LINE('',#969,#121);
#56=LINE('',#971,#122);
#57=LINE('',#973,#123);
#58=LINE('',#975,#124);
#59=LINE('',#977,#125);
#60=LINE('',#979,#126);
#61=LINE('',#981,#127);
#62=LINE('',#983,#128);
#63=LINE('',#985,#129);
#64=LINE('',#987,#130);
#65=LINE('',#989,#131);
#66=LINE('',#991,#132);
#67=LINE('',#993,#133);
#68=LINE('',#996,#134);
#69=LINE('',#998,#135);
#70=LINE('',#1000,#136);
#71=LINE('',#1002,#137);
#72=LINE('',#1004,#138);
#73=LINE('',#1006,#139);
#74=LINE('',#1008,#140);
#75=LINE('',#1010,#141);
#76=LINE('',#1012,#142);
#77=LINE('',#1014,#143);
#78=LINE('',#1016,#144);
#79=LINE('',#1019,#145);
#80=LINE('',#1021,#146);
#81=LINE('',#1023,#147);
#82=LINE('',#1025,#148);
#83=LINE('',#1027,#149);
#84=LINE('',#1029,#150);
#85=LINE('',#1031,#151);
#86=LINE('',#1033,#152);
#87=LINE('',#1036,#153);
#88=VECTOR('',#777,1000.);
#89=VECTOR('',#778,1000.);
#90=VECTOR('',#779,1000.);
#91=VECTOR('',#780,1000.);
#92=VECTOR('',#781,1000.);
#93=VECTOR('',#782,1000.);
#94=VECTOR('',#785,1000.);
#95=VECTOR('',#786,1000.);
#96=VECTOR('',#787,1000.);
#97=VECTOR('',#788,1000.);
#98=VECTOR('',#789,1000.);
#99=VECTOR('',#790,1000.);
#100=VECTOR('',#791,1000.);
#101=VECTOR('',#792,1000.);
#102=VECTOR('',#793,1000.);
#103=VECTOR('',#796,1000.);
#104=VECTOR('',#797,1000.);
#105=VECTOR('',#798,1000.);
#106=VECTOR('',#799,1000.);
#107=VECTOR('',#800,1000.);
#108=VECTOR('',#801,1000.);
#109=VECTOR('',#802,1000.);
#110=VECTOR('',#803,1000.);
#111=VECTOR('',#804,1000.);
#112=VECTOR('',#805,1000.);
#113=VECTOR('',#806,1000.);
#114=VECTOR('',#807,1000.);
#115=VECTOR('',#808,1000.);
#116=VECTOR('',#811,1000.);
#117=VECTOR('',#812,1000.);
#118=VECTOR('',#813,1000.);
#119=VECTOR('',#814,1000.);
#120=VECTOR('',#815,1000.);
#121=VECTOR('',#818,1000.);
#122=VECTOR('',#821,1000.);
#123=VECTOR('',#824,1000.);
#124=VECTOR('',#825,1000.);
#125=VECTOR('',#826,1000.);
#126=VECTOR('',#829,1000.);
#127=VECTOR('',#830,1000.);
#128=VECTOR('',#831,1000.);
#129=VECTOR('',#834,1000.);
#130=VECTOR('',#835,1000.);
#131=VECTOR('',#838,1000.);
#132=VECTOR('',#839,1000.);
#133=VECTOR('',#842,1000.);
#134=VECTOR('',#847,1000.);
#135=VECTOR('',#848,1000.);
#136=VECTOR('',#849,1000.);
#137=VECTOR('',#852,1000.);
#138=VECTOR('',#853,1000.);
#139=VECTOR('',#854,1000.);
#140=VECTOR('',#857,1000.);
#141=VECTOR('',#858,1000.);
#142=VECTOR('',#859,1000.);
#143=VECTOR('',#862,1000.);
#144=VECTOR('',#865,1000.);
#145=VECTOR('',#870,1000.);
#146=VECTOR('',#871,1000.);
#147=VECTOR('',#872,1000.);
#148=VECTOR('',#875,1000.);
#149=VECTOR('',#876,1000.);
#150=VECTOR('',#879,1000.);
#151=VECTOR('',#880,1000.);
#152=VECTOR('',#883,1000.);
#153=VECTOR('',#888,1000.);
#154=PLANE('',#739);
#155=PLANE('',#740);
#156=PLANE('',#741);
#157=PLANE('',#742);
#158=PLANE('',#743);
#159=PLANE('',#744);
#160=PLANE('',#745);
#161=PLANE('',#746);
#162=PLANE('',#747);
#163=PLANE('',#748);
#164=PLANE('',#749);
#165=PLANE('',#750);
#166=PLANE('',#751);
#167=PLANE('',#752);
#168=PLANE('',#753);
#169=PLANE('',#754);
#170=PLANE('',#755);
#171=PLANE('',#756);
#172=PLANE('',#757);
#173=PLANE('',#758);
#174=PLANE('',#759);
#175=PLANE('',#760);
#176=PLANE('',#761);
#177=PLANE('',#762);
#178=PLANE('',#763);
#179=PLANE('',#766);
#180=ORIENTED_EDGE('',*,*,#318,.F.);
#181=ORIENTED_EDGE('',*,*,#319,.F.);
#182=ORIENTED_EDGE('',*,*,#320,.F.);
#183=ORIENTED_EDGE('',*,*,#321,.T.);
#184=ORIENTED_EDGE('',*,*,#322,.T.);
#185=ORIENTED_EDGE('',*,*,#323,.F.);
#186=ORIENTED_EDGE('',*,*,#324,.F.);
#187=ORIENTED_EDGE('',*,*,#325,.F.);
#188=ORIENTED_EDGE('',*,*,#326,.F.);
#189=ORIENTED_EDGE('',*,*,#327,.T.);
#190=ORIENTED_EDGE('',*,*,#328,.F.);
#191=ORIENTED_EDGE('',*,*,#329,.T.);
#192=ORIENTED_EDGE('',*,*,#330,.T.);
#193=ORIENTED_EDGE('',*,*,#331,.F.);
#194=ORIENTED_EDGE('',*,*,#332,.F.);
#195=ORIENTED_EDGE('',*,*,#333,.F.);
#196=ORIENTED_EDGE('',*,*,#334,.T.);
#197=ORIENTED_EDGE('',*,*,#321,.F.);
#198=ORIENTED_EDGE('',*,*,#335,.T.);
#199=ORIENTED_EDGE('',*,*,#336,.T.);
#200=ORIENTED_EDGE('',*,*,#337,.T.);
#201=ORIENTED_EDGE('',*,*,#338,.T.);
#202=ORIENTED_EDGE('',*,*,#339,.T.);
#203=ORIENTED_EDGE('',*,*,#340,.T.);
#204=ORIENTED_EDGE('',*,*,#341,.F.);
#205=ORIENTED_EDGE('',*,*,#322,.F.);
#206=ORIENTED_EDGE('',*,*,#334,.F.);
#207=ORIENTED_EDGE('',*,*,#342,.F.);
#208=ORIENTED_EDGE('',*,*,#343,.F.);
#209=ORIENTED_EDGE('',*,*,#344,.F.);
#210=ORIENTED_EDGE('',*,*,#330,.F.);
#211=ORIENTED_EDGE('',*,*,#345,.F.);
#212=ORIENTED_EDGE('',*,*,#346,.F.);
#213=ORIENTED_EDGE('',*,*,#347,.T.);
#214=ORIENTED_EDGE('',*,*,#341,.T.);
#215=ORIENTED_EDGE('',*,*,#348,.T.);
#216=ORIENTED_EDGE('',*,*,#349,.T.);
#217=ORIENTED_EDGE('',*,*,#350,.T.);
#218=ORIENTED_EDGE('',*,*,#346,.T.);
#219=ORIENTED_EDGE('',*,*,#351,.F.);
#220=ORIENTED_EDGE('',*,*,#352,.F.);
#221=ORIENTED_EDGE('',*,*,#323,.T.);
#222=ORIENTED_EDGE('',*,*,#345,.T.);
#223=ORIENTED_EDGE('',*,*,#329,.F.);
#224=ORIENTED_EDGE('',*,*,#353,.F.);
#225=ORIENTED_EDGE('',*,*,#351,.T.);
#226=ORIENTED_EDGE('',*,*,#354,.F.);
#227=ORIENTED_EDGE('',*,*,#324,.T.);
#228=ORIENTED_EDGE('',*,*,#352,.T.);
#229=ORIENTED_EDGE('',*,*,#353,.T.);
#230=ORIENTED_EDGE('',*,*,#328,.T.);
#231=ORIENTED_EDGE('',*,*,#318,.T.);
#232=ORIENTED_EDGE('',*,*,#355,.F.);
#233=ORIENTED_EDGE('',*,*,#332,.T.);
#234=ORIENTED_EDGE('',*,*,#356,.F.);
#235=ORIENTED_EDGE('',*,*,#357,.F.);
#236=ORIENTED_EDGE('',*,*,#356,.T.);
#237=ORIENTED_EDGE('',*,*,#331,.T.);
#238=ORIENTED_EDGE('',*,*,#344,.T.);
#239=ORIENTED_EDGE('',*,*,#358,.F.);
#240=ORIENTED_EDGE('',*,*,#359,.F.);
#241=ORIENTED_EDGE('',*,*,#360,.T.);
#242=ORIENTED_EDGE('',*,*,#358,.T.);
#243=ORIENTED_EDGE('',*,*,#343,.T.);
#244=ORIENTED_EDGE('',*,*,#361,.F.);
#245=ORIENTED_EDGE('',*,*,#362,.F.);
#246=ORIENTED_EDGE('',*,*,#342,.T.);
#247=ORIENTED_EDGE('',*,*,#333,.T.);
#248=ORIENTED_EDGE('',*,*,#355,.T.);
#249=ORIENTED_EDGE('',*,*,#363,.F.);
#250=ORIENTED_EDGE('',*,*,#364,.F.);
#251=ORIENTED_EDGE('',*,*,#361,.T.);
#252=ORIENTED_EDGE('',*,*,#365,.T.);
#253=ORIENTED_EDGE('',*,*,#359,.T.);
#254=ORIENTED_EDGE('',*,*,#362,.T.);
#255=ORIENTED_EDGE('',*,*,#364,.T.);
#256=ORIENTED_EDGE('',*,*,#357,.T.);
#257=ORIENTED_EDGE('',*,*,#360,.F.);
#258=ORIENTED_EDGE('',*,*,#365,.F.);
#259=ORIENTED_EDGE('',*,*,#363,.T.);
#260=ORIENTED_EDGE('',*,*,#349,.F.);
#261=ORIENTED_EDGE('',*,*,#366,.T.);
#262=ORIENTED_EDGE('',*,*,#367,.T.);
#263=ORIENTED_EDGE('',*,*,#368,.T.);
#264=ORIENTED_EDGE('',*,*,#348,.F.);
#265=ORIENTED_EDGE('',*,*,#340,.F.);
#266=ORIENTED_EDGE('',*,*,#369,.F.);
#267=ORIENTED_EDGE('',*,*,#370,.T.);
#268=ORIENTED_EDGE('',*,*,#371,.T.);
#269=ORIENTED_EDGE('',*,*,#366,.F.);
#270=ORIENTED_EDGE('',*,*,#350,.F.);
#271=ORIENTED_EDGE('',*,*,#368,.F.);
#272=ORIENTED_EDGE('',*,*,#372,.F.);
#273=ORIENTED_EDGE('',*,*,#373,.T.);
#274=ORIENTED_EDGE('',*,*,#374,.T.);
#275=ORIENTED_EDGE('',*,*,#347,.F.);
#276=ORIENTED_EDGE('',*,*,#339,.F.);
#277=ORIENTED_EDGE('',*,*,#374,.F.);
#278=ORIENTED_EDGE('',*,*,#375,.T.);
#279=ORIENTED_EDGE('',*,*,#369,.T.);
#280=ORIENTED_EDGE('',*,*,#370,.F.);
#281=ORIENTED_EDGE('',*,*,#375,.F.);
#282=ORIENTED_EDGE('',*,*,#373,.F.);
#283=ORIENTED_EDGE('',*,*,#376,.F.);
#284=ORIENTED_EDGE('',*,*,#367,.F.);
#285=ORIENTED_EDGE('',*,*,#371,.F.);
#286=ORIENTED_EDGE('',*,*,#376,.T.);
#287=ORIENTED_EDGE('',*,*,#372,.T.);
#288=ORIENTED_EDGE('',*,*,#336,.F.);
#289=ORIENTED_EDGE('',*,*,#377,.F.);
#290=ORIENTED_EDGE('',*,*,#378,.T.);
#291=ORIENTED_EDGE('',*,*,#379,.T.);
#292=ORIENTED_EDGE('',*,*,#337,.F.);
#293=ORIENTED_EDGE('',*,*,#379,.F.);
#294=ORIENTED_EDGE('',*,*,#380,.T.);
#295=ORIENTED_EDGE('',*,*,#381,.T.);
#296=ORIENTED_EDGE('',*,*,#338,.F.);
#297=ORIENTED_EDGE('',*,*,#381,.F.);
#298=ORIENTED_EDGE('',*,*,#382,.T.);
#299=ORIENTED_EDGE('',*,*,#383,.T.);
#300=ORIENTED_EDGE('',*,*,#335,.F.);
#301=ORIENTED_EDGE('',*,*,#383,.F.);
#302=ORIENTED_EDGE('',*,*,#384,.T.);
#303=ORIENTED_EDGE('',*,*,#377,.T.);
#304=ORIENTED_EDGE('',*,*,#378,.F.);
#305=ORIENTED_EDGE('',*,*,#384,.F.);
#306=ORIENTED_EDGE('',*,*,#382,.F.);
#307=ORIENTED_EDGE('',*,*,#380,.F.);
#308=ORIENTED_EDGE('',*,*,#354,.T.);
#309=ORIENTED_EDGE('',*,*,#327,.F.);
#310=ORIENTED_EDGE('',*,*,#385,.F.);
#311=ORIENTED_EDGE('',*,*,#325,.T.);
#312=ORIENTED_EDGE('',*,*,#385,.T.);
#313=ORIENTED_EDGE('',*,*,#326,.T.);
#314=ORIENTED_EDGE('',*,*,#320,.T.);
#315=ORIENTED_EDGE('',*,*,#319,.T.);
#316=ORIENTED_EDGE('',*,*,#386,.F.);
#317=ORIENTED_EDGE('',*,*,#386,.T.);
#318=EDGE_CURVE('',#387,#387,#434,.T.);
#319=EDGE_CURVE('',#388,#388,#435,.T.);
#320=EDGE_CURVE('',#389,#390,#22,.T.);
#321=EDGE_CURVE('',#389,#391,#23,.T.);
#322=EDGE_CURVE('',#391,#392,#24,.T.);
#323=EDGE_CURVE('',#393,#392,#25,.T.);
#324=EDGE_CURVE('',#394,#393,#26,.T.);
#325=EDGE_CURVE('',#390,#394,#27,.T.);
#326=EDGE_CURVE('',#395,#389,#28,.T.);
#327=EDGE_CURVE('',#395,#396,#29,.T.);
#328=EDGE_CURVE('',#397,#396,#30,.T.);
#329=EDGE_CURVE('',#397,#398,#31,.T.);
#330=EDGE_CURVE('',#398,#399,#32,.T.);
#331=EDGE_CURVE('',#400,#399,#33,.T.);
#332=EDGE_CURVE('',#401,#400,#34,.T.);
#333=EDGE_CURVE('',#402,#401,#35,.T.);
#334=EDGE_CURVE('',#402,#391,#36,.T.);
#335=EDGE_CURVE('',#403,#404,#37,.T.);
#336=EDGE_CURVE('',#404,#405,#38,.T.);
#337=EDGE_CURVE('',#405,#406,#39,.T.);
#338=EDGE_CURVE('',#406,#403,#40,.T.);
#339=EDGE_CURVE('',#407,#408,#41,.T.);
#340=EDGE_CURVE('',#408,#409,#42,.T.);
#341=EDGE_CURVE('',#392,#409,#43,.T.);
#342=EDGE_CURVE('',#410,#402,#44,.T.);
#343=EDGE_CURVE('',#411,#410,#45,.T.);
#344=EDGE_CURVE('',#399,#411,#46,.T.);
#345=EDGE_CURVE('',#412,#398,#47,.T.);
#346=EDGE_CURVE('',#413,#412,#48,.T.);
#347=EDGE_CURVE('',#413,#407,#49,.T.);
#348=EDGE_CURVE('',#409,#414,#50,.T.);
#349=EDGE_CURVE('',#414,#415,#51,.T.);
#350=EDGE_CURVE('',#415,#413,#52,.T.);
#351=EDGE_CURVE('',#416,#412,#53,.T.);
#352=EDGE_CURVE('',#393,#416,#54,.T.);
#353=EDGE_CURVE('',#416,#397,#55,.T.);
#354=EDGE_CURVE('',#394,#396,#56,.T.);
#355=EDGE_CURVE('',#401,#417,#57,.T.);
#356=EDGE_CURVE('',#418,#400,#58,.T.);
#357=EDGE_CURVE('',#417,#418,#59,.T.);
#358=EDGE_CURVE('',#419,#411,#60,.T.);
#359=EDGE_CURVE('',#420,#419,#61,.T.);
#360=EDGE_CURVE('',#420,#418,#62,.T.);
#361=EDGE_CURVE('',#421,#410,#63,.T.);
#362=EDGE_CURVE('',#419,#421,#64,.T.);
#363=EDGE_CURVE('',#422,#417,#65,.T.);
#364=EDGE_CURVE('',#421,#422,#66,.T.);
#365=EDGE_CURVE('',#422,#420,#67,.T.);
#366=EDGE_CURVE('',#414,#423,#68,.T.);
#367=EDGE_CURVE('',#423,#424,#69,.T.);
#368=EDGE_CURVE('',#424,#415,#70,.T.);
#369=EDGE_CURVE('',#425,#408,#71,.T.);
#370=EDGE_CURVE('',#425,#426,#72,.T.);
#371=EDGE_CURVE('',#426,#423,#73,.T.);
#372=EDGE_CURVE('',#427,#424,#74,.T.);
#373=EDGE_CURVE('',#427,#428,#75,.T.);
#374=EDGE_CURVE('',#428,#407,#76,.T.);
#375=EDGE_CURVE('',#428,#425,#77,.T.);
#376=EDGE_CURVE('',#426,#427,#78,.T.);
#377=EDGE_CURVE('',#429,#404,#79,.T.);
#378=EDGE_CURVE('',#429,#430,#80,.T.);
#379=EDGE_CURVE('',#430,#405,#81,.T.);
#380=EDGE_CURVE('',#430,#431,#82,.T.);
#381=EDGE_CURVE('',#431,#406,#83,.T.);
#382=EDGE_CURVE('',#431,#432,#84,.T.);
#383=EDGE_CURVE('',#432,#403,#85,.T.);
#384=EDGE_CURVE('',#432,#429,#86,.T.);
#385=EDGE_CURVE('',#390,#395,#87,.T.);
#386=EDGE_CURVE('',#433,#433,#436,.T.);
#387=VERTEX_POINT('',#900);
#388=VERTEX_POINT('',#902);
#389=VERTEX_POINT('',#905);
#390=VERTEX_POINT('',#906);
#391=VERTEX_POINT('',#908);
#392=VERTEX_POINT('',#910);
#393=VERTEX_POINT('',#912);
#394=VERTEX_POINT('',#914);
#395=VERTEX_POINT('',#918);
#396=VERTEX_POINT('',#920);
#397=VERTEX_POINT('',#922);
#398=VERTEX_POINT('',#924);
#399=VERTEX_POINT('',#926);
#400=VERTEX_POINT('',#928);
#401=VERTEX_POINT('',#930);
#402=VERTEX_POINT('',#932);
#403=VERTEX_POINT('',#936);
#404=VERTEX_POINT('',#937);
#405=VERTEX_POINT('',#939);
#406=VERTEX_POINT('',#941);
#407=VERTEX_POINT('',#944);
#408=VERTEX_POINT('',#945);
#409=VERTEX_POINT('',#947);
#410=VERTEX_POINT('',#950);
#411=VERTEX_POINT('',#952);
#412=VERTEX_POINT('',#955);
#413=VERTEX_POINT('',#957);
#414=VERTEX_POINT('',#961);
#415=VERTEX_POINT('',#963);
#416=VERTEX_POINT('',#966);
#417=VERTEX_POINT('',#974);
#418=VERTEX_POINT('',#976);
#419=VERTEX_POINT('',#980);
#420=VERTEX_POINT('',#982);
#421=VERTEX_POINT('',#986);
#422=VERTEX_POINT('',#990);
#423=VERTEX_POINT('',#997);
#424=VERTEX_POINT('',#999);
#425=VERTEX_POINT('',#1003);
#426=VERTEX_POINT('',#1005);
#427=VERTEX_POINT('',#1009);
#428=VERTEX_POINT('',#1011);
#429=VERTEX_POINT('',#1020);
#430=VERTEX_POINT('',#1022);
#431=VERTEX_POINT('',#1026);
#432=VERTEX_POINT('',#1030);
#433=VERTEX_POINT('',#1040);
#434=CIRCLE('',#737,1.5);
#435=CIRCLE('',#738,1.38971775774961);
#436=CIRCLE('',#765,0.121725991287628);
#437=EDGE_LOOP('',(#180));
#438=EDGE_LOOP('',(#181));
#439=EDGE_LOOP('',(#182,#183,#184,#185,#186,#187));
#440=EDGE_LOOP('',(#188,#189,#190,#191,#192,#193,#194,#195,#196,#197));
#441=EDGE_LOOP('',(#198,#199,#200,#201));
#442=EDGE_LOOP('',(#202,#203,#204,#205,#206,#207,#208,#209,#210,#211,#212,
#213));
#443=EDGE_LOOP('',(#214,#215,#216,#217,#218,#219,#220,#221));
#444=EDGE_LOOP('',(#222,#223,#224,#225));
#445=EDGE_LOOP('',(#226,#227,#228,#229,#230));
#446=EDGE_LOOP('',(#231));
#447=EDGE_LOOP('',(#232,#233,#234,#235));
#448=EDGE_LOOP('',(#236,#237,#238,#239,#240,#241));
#449=EDGE_LOOP('',(#242,#243,#244,#245));
#450=EDGE_LOOP('',(#246,#247,#248,#249,#250,#251));
#451=EDGE_LOOP('',(#252,#253,#254,#255));
#452=EDGE_LOOP('',(#256,#257,#258,#259));
#453=EDGE_LOOP('',(#260,#261,#262,#263));
#454=EDGE_LOOP('',(#264,#265,#266,#267,#268,#269));
#455=EDGE_LOOP('',(#270,#271,#272,#273,#274,#275));
#456=EDGE_LOOP('',(#276,#277,#278,#279));
#457=EDGE_LOOP('',(#280,#281,#282,#283));
#458=EDGE_LOOP('',(#284,#285,#286,#287));
#459=EDGE_LOOP('',(#288,#289,#290,#291));
#460=EDGE_LOOP('',(#292,#293,#294,#295));
#461=EDGE_LOOP('',(#296,#297,#298,#299));
#462=EDGE_LOOP('',(#300,#301,#302,#303));
#463=EDGE_LOOP('',(#304,#305,#306,#307));
#464=EDGE_LOOP('',(#308,#309,#310,#311));
#465=EDGE_LOOP('',(#312,#313,#314));
#466=EDGE_LOOP('',(#315));
#467=EDGE_LOOP('',(#316));
#468=EDGE_LOOP('',(#317));
#469=FACE_BOUND('',#437,.T.);
#470=FACE_BOUND('',#438,.T.);
#471=FACE_BOUND('',#439,.T.);
#472=FACE_BOUND('',#440,.T.);
#473=FACE_BOUND('',#441,.T.);
#474=FACE_BOUND('',#442,.T.);
#475=FACE_BOUND('',#443,.T.);
#476=FACE_BOUND('',#444,.T.);
#477=FACE_BOUND('',#445,.T.);
#478=FACE_BOUND('',#446,.T.);
#479=FACE_BOUND('',#447,.T.);
#480=FACE_BOUND('',#448,.T.);
#481=FACE_BOUND('',#449,.T.);
#482=FACE_BOUND('',#450,.T.);
#483=FACE_BOUND('',#451,.T.);
#484=FACE_BOUND('',#452,.T.);
#485=FACE_BOUND('',#453,.T.);
#486=FACE_BOUND('',#454,.T.);
#487=FACE_BOUND('',#455,.T.);
#488=FACE_BOUND('',#456,.T.);
#489=FACE_BOUND('',#457,.T.);
#490=FACE_BOUND('',#458,.T.);
#491=FACE_BOUND('',#459,.T.);
#492=FACE_BOUND('',#460,.T.);
#493=FACE_BOUND('',#461,.T.);
#494=FACE_BOUND('',#462,.T.);
#495=FACE_BOUND('',#463,.T.);
#496=FACE_BOUND('',#464,.T.);
#497=FACE_BOUND('',#465,.T.);
#498=FACE_BOUND('',#466,.T.);
#499=FACE_BOUND('',#467,.T.);
#500=FACE_BOUND('',#468,.T.);
#501=CONICAL_SURFACE('',#736,1.5,0.15707963267949);
#502=STYLED_ITEM('',(#530),#703);
#503=STYLED_ITEM('',(#531),#704);
#504=STYLED_ITEM('',(#532),#705);
#505=STYLED_ITEM('',(#533),#706);
#506=STYLED_ITEM('',(#534),#707);
#507=STYLED_ITEM('',(#535),#708);
#508=STYLED_ITEM('',(#536),#709);
#509=STYLED_ITEM('',(#537),#710);
#510=STYLED_ITEM('',(#538),#711);
#511=STYLED_ITEM('',(#539),#712);
#512=STYLED_ITEM('',(#540),#713);
#513=STYLED_ITEM('',(#541),#714);
#514=STYLED_ITEM('',(#542),#715);
#515=STYLED_ITEM('',(#543),#716);
#516=STYLED_ITEM('',(#544),#717);
#517=STYLED_ITEM('',(#545),#718);
#518=STYLED_ITEM('',(#546),#719);
#519=STYLED_ITEM('',(#547),#720);
#520=STYLED_ITEM('',(#548),#721);
#521=STYLED_ITEM('',(#549),#722);
#522=STYLED_ITEM('',(#550),#723);
#523=STYLED_ITEM('',(#551),#724);
#524=STYLED_ITEM('',(#552),#725);
#525=STYLED_ITEM('',(#553),#726);
#526=STYLED_ITEM('',(#554),#727);
#527=STYLED_ITEM('',(#555),#728);
#528=STYLED_ITEM('',(#556),#729);
#529=STYLED_ITEM('',(#557),#730);
#530=PRESENTATION_STYLE_ASSIGNMENT((#558));
#531=PRESENTATION_STYLE_ASSIGNMENT((#559));
#532=PRESENTATION_STYLE_ASSIGNMENT((#560));
#533=PRESENTATION_STYLE_ASSIGNMENT((#561));
#534=PRESENTATION_STYLE_ASSIGNMENT((#562));
#535=PRESENTATION_STYLE_ASSIGNMENT((#563));
#536=PRESENTATION_STYLE_ASSIGNMENT((#564));
#537=PRESENTATION_STYLE_ASSIGNMENT((#565));
#538=PRESENTATION_STYLE_ASSIGNMENT((#566));
#539=PRESENTATION_STYLE_ASSIGNMENT((#567));
#540=PRESENTATION_STYLE_ASSIGNMENT((#568));
#541=PRESENTATION_STYLE_ASSIGNMENT((#569));
#542=PRESENTATION_STYLE_ASSIGNMENT((#570));
#543=PRESENTATION_STYLE_ASSIGNMENT((#571));
#544=PRESENTATION_STYLE_ASSIGNMENT((#572));
#545=PRESENTATION_STYLE_ASSIGNMENT((#573));
#546=PRESENTATION_STYLE_ASSIGNMENT((#574));
#547=PRESENTATION_STYLE_ASSIGNMENT((#575));
#548=PRESENTATION_STYLE_ASSIGNMENT((#576));
#549=PRESENTATION_STYLE_ASSIGNMENT((#577));
#550=PRESENTATION_STYLE_ASSIGNMENT((#578));
#551=PRESENTATION_STYLE_ASSIGNMENT((#579));
#552=PRESENTATION_STYLE_ASSIGNMENT((#580));
#553=PRESENTATION_STYLE_ASSIGNMENT((#581));
#554=PRESENTATION_STYLE_ASSIGNMENT((#582));
#555=PRESENTATION_STYLE_ASSIGNMENT((#583));
#556=PRESENTATION_STYLE_ASSIGNMENT((#584));
#557=PRESENTATION_STYLE_ASSIGNMENT((#585));
#558=SURFACE_STYLE_USAGE(.BOTH.,#586);
#559=SURFACE_STYLE_USAGE(.BOTH.,#587);
#560=SURFACE_STYLE_USAGE(.BOTH.,#588);
#561=SURFACE_STYLE_USAGE(.BOTH.,#589);
#562=SURFACE_STYLE_USAGE(.BOTH.,#590);
#563=SURFACE_STYLE_USAGE(.BOTH.,#591);
#564=SURFACE_STYLE_USAGE(.BOTH.,#592);
#565=SURFACE_STYLE_USAGE(.BOTH.,#593);
#566=SURFACE_STYLE_USAGE(.BOTH.,#594);
#567=SURFACE_STYLE_USAGE(.BOTH.,#595);
#568=SURFACE_STYLE_USAGE(.BOTH.,#596);
#569=SURFACE_STYLE_USAGE(.BOTH.,#597);
#570=SURFACE_STYLE_USAGE(.BOTH.,#598);
#571=SURFACE_STYLE_USAGE(.BOTH.,#599);
#572=SURFACE_STYLE_USAGE(.BOTH.,#600);
#573=SURFACE_STYLE_USAGE(.BOTH.,#601);
#574=SURFACE_STYLE_USAGE(.BOTH.,#602);
#575=SURFACE_STYLE_USAGE(.BOTH.,#603);
#576=SURFACE_STYLE_USAGE(.BOTH.,#604);
#577=SURFACE_STYLE_USAGE(.BOTH.,#605);
#578=SURFACE_STYLE_USAGE(.BOTH.,#606);
#579=SURFACE_STYLE_USAGE(.BOTH.,#607);
#580=SURFACE_STYLE_USAGE(.BOTH.,#608);
#581=SURFACE_STYLE_USAGE(.BOTH.,#609);
#582=SURFACE_STYLE_USAGE(.BOTH.,#610);
#583=SURFACE_STYLE_USAGE(.BOTH.,#611);
#584=SURFACE_STYLE_USAGE(.BOTH.,#612);
#585=SURFACE_STYLE_USAGE(.BOTH.,#613);
#586=SURFACE_SIDE_STYLE('',(#618,#614));
#587=SURFACE_SIDE_STYLE('',(#619));
#588=SURFACE_SIDE_STYLE('',(#620));
#589=SURFACE_SIDE_STYLE('',(#621));
#590=SURFACE_SIDE_STYLE('',(#622));
#591=SURFACE_SIDE_STYLE('',(#623));
#592=SURFACE_SIDE_STYLE('',(#624));
#593=SURFACE_SIDE_STYLE('',(#625));
#594=SURFACE_SIDE_STYLE('',(#626));
#595=SURFACE_SIDE_STYLE('',(#627));
#596=SURFACE_SIDE_STYLE('',(#628));
#597=SURFACE_SIDE_STYLE('',(#629));
#598=SURFACE_SIDE_STYLE('',(#630));
#599=SURFACE_SIDE_STYLE('',(#631));
#600=SURFACE_SIDE_STYLE('',(#632));
#601=SURFACE_SIDE_STYLE('',(#633));
#602=SURFACE_SIDE_STYLE('',(#634));
#603=SURFACE_SIDE_STYLE('',(#635));
#604=SURFACE_SIDE_STYLE('',(#636));
#605=SURFACE_SIDE_STYLE('',(#637));
#606=SURFACE_SIDE_STYLE('',(#638));
#607=SURFACE_SIDE_STYLE('',(#639));
#608=SURFACE_SIDE_STYLE('',(#640));
#609=SURFACE_SIDE_STYLE('',(#641));
#610=SURFACE_SIDE_STYLE('',(#642));
#611=SURFACE_SIDE_STYLE('',(#643));
#612=SURFACE_SIDE_STYLE('',(#644,#615));
#613=SURFACE_SIDE_STYLE('',(#645));
#614=SURFACE_STYLE_RENDERING_WITH_PROPERTIES(.CONSTANT_SHADING.,#702,(#616));
#615=SURFACE_STYLE_RENDERING_WITH_PROPERTIES(.CONSTANT_SHADING.,#702,(#617));
#616=SURFACE_STYLE_TRANSPARENT(0.5);
#617=SURFACE_STYLE_TRANSPARENT(0.5);
#618=SURFACE_STYLE_FILL_AREA(#646);
#619=SURFACE_STYLE_FILL_AREA(#647);
#620=SURFACE_STYLE_FILL_AREA(#648);
#621=SURFACE_STYLE_FILL_AREA(#649);
#622=SURFACE_STYLE_FILL_AREA(#650);
#623=SURFACE_STYLE_FILL_AREA(#651);
#624=SURFACE_STYLE_FILL_AREA(#652);
#625=SURFACE_STYLE_FILL_AREA(#653);
#626=SURFACE_STYLE_FILL_AREA(#654);
#627=SURFACE_STYLE_FILL_AREA(#655);
#628=SURFACE_STYLE_FILL_AREA(#656);
#629=SURFACE_STYLE_FILL_AREA(#657);
#630=SURFACE_STYLE_FILL_AREA(#658);
#631=SURFACE_STYLE_FILL_AREA(#659);
#632=SURFACE_STYLE_FILL_AREA(#660);
#633=SURFACE_STYLE_FILL_AREA(#661);
#634=SURFACE_STYLE_FILL_AREA(#662);
#635=SURFACE_STYLE_FILL_AREA(#663);
#636=SURFACE_STYLE_FILL_AREA(#664);
#637=SURFACE_STYLE_FILL_AREA(#665);
#638=SURFACE_STYLE_FILL_AREA(#666);
#639=SURFACE_STYLE_FILL_AREA(#667);
#640=SURFACE_STYLE_FILL_AREA(#668);
#641=SURFACE_STYLE_FILL_AREA(#669);
#642=SURFACE_STYLE_FILL_AREA(#670);
#643=SURFACE_STYLE_FILL_AREA(#671);
#644=SURFACE_STYLE_FILL_AREA(#672);
#645=SURFACE_STYLE_FILL_AREA(#673);
#646=FILL_AREA_STYLE('',(#674));
#647=FILL_AREA_STYLE('',(#675));
#648=FILL_AREA_STYLE('',(#676));
#649=FILL_AREA_STYLE('',(#677));
#650=FILL_AREA_STYLE('',(#678));
#651=FILL_AREA_STYLE('',(#679));
#652=FILL_AREA_STYLE('',(#680));
#653=FILL_AREA_STYLE('',(#681));
#654=FILL_AREA_STYLE('',(#682));
#655=FILL_AREA_STYLE('',(#683));
#656=FILL_AREA_STYLE('',(#684));
#657=FILL_AREA_STYLE('',(#685));
#658=FILL_AREA_STYLE('',(#686));
#659=FILL_AREA_STYLE('',(#687));
#660=FILL_AREA_STYLE('',(#688));
#661=FILL_AREA_STYLE('',(#689));
#662=FILL_AREA_STYLE('',(#690));
#663=FILL_AREA_STYLE('',(#691));
#664=FILL_AREA_STYLE('',(#692));
#665=FILL_AREA_STYLE('',(#693));
#666=FILL_AREA_STYLE('',(#694));
#667=FILL_AREA_STYLE('',(#695));
#668=FILL_AREA_STYLE('',(#696));
#669=FILL_AREA_STYLE('',(#697));
#670=FILL_AREA_STYLE('',(#698));
#671=FILL_AREA_STYLE('',(#699));
#672=FILL_AREA_STYLE('',(#700));
#673=FILL_AREA_STYLE('',(#701));
#674=FILL_AREA_STYLE_COLOUR('',#702);
#675=FILL_AREA_STYLE_COLOUR('',#702);
#676=FILL_AREA_STYLE_COLOUR('',#702);
#677=FILL_AREA_STYLE_COLOUR('',#702);
#678=FILL_AREA_STYLE_COLOUR('',#702);
#679=FILL_AREA_STYLE_COLOUR('',#702);
#680=FILL_AREA_STYLE_COLOUR('',#702);
#681=FILL_AREA_STYLE_COLOUR('',#21);
#682=FILL_AREA_STYLE_COLOUR('',#21);
#683=FILL_AREA_STYLE_COLOUR('',#21);
#684=FILL_AREA_STYLE_COLOUR('',#21);
#685=FILL_AREA_STYLE_COLOUR('',#21);
#686=FILL_AREA_STYLE_COLOUR('',#21);
#687=FILL_AREA_STYLE_COLOUR('',#21);
#688=FILL_AREA_STYLE_COLOUR('',#21);
#689=FILL_AREA_STYLE_COLOUR('',#21);
#690=FILL_AREA_STYLE_COLOUR('',#21);
#691=FILL_AREA_STYLE_COLOUR('',#21);
#692=FILL_AREA_STYLE_COLOUR('',#21);
#693=FILL_AREA_STYLE_COLOUR('',#21);
#694=FILL_AREA_STYLE_COLOUR('',#21);
#695=FILL_AREA_STYLE_COLOUR('',#21);
#696=FILL_AREA_STYLE_COLOUR('',#21);
#697=FILL_AREA_STYLE_COLOUR('',#21);
#698=FILL_AREA_STYLE_COLOUR('',#702);
#699=FILL_AREA_STYLE_COLOUR('',#702);
#700=FILL_AREA_STYLE_COLOUR('',#702);
#701=FILL_AREA_STYLE_COLOUR('',#21);
#702=DRAUGHTING_PRE_DEFINED_COLOUR('white');
#703=ADVANCED_FACE('',(#469,#470),#501,.T.);
#704=ADVANCED_FACE('',(#471),#154,.F.);
#705=ADVANCED_FACE('',(#472),#155,.F.);
#706=ADVANCED_FACE('',(#473,#474),#156,.F.);
#707=ADVANCED_FACE('',(#475),#157,.F.);
#708=ADVANCED_FACE('',(#476),#158,.F.);
#709=ADVANCED_FACE('',(#477,#478),#159,.T.);
#710=ADVANCED_FACE('',(#479),#160,.F.);
#711=ADVANCED_FACE('',(#480),#161,.F.);
#712=ADVANCED_FACE('',(#481),#162,.F.);
#713=ADVANCED_FACE('',(#482),#163,.F.);
#714=ADVANCED_FACE('',(#483),#164,.T.);
#715=ADVANCED_FACE('',(#484),#165,.F.);
#716=ADVANCED_FACE('',(#485),#166,.T.);
#717=ADVANCED_FACE('',(#486),#167,.T.);
#718=ADVANCED_FACE('',(#487),#168,.T.);
#719=ADVANCED_FACE('',(#488),#169,.T.);
#720=ADVANCED_FACE('',(#489),#170,.F.);
#721=ADVANCED_FACE('',(#490),#171,.T.);
#722=ADVANCED_FACE('',(#491),#172,.T.);
#723=ADVANCED_FACE('',(#492),#173,.T.);
#724=ADVANCED_FACE('',(#493),#174,.T.);
#725=ADVANCED_FACE('',(#494),#175,.T.);
#726=ADVANCED_FACE('',(#495),#176,.F.);
#727=ADVANCED_FACE('',(#496),#177,.F.);
#728=ADVANCED_FACE('',(#497),#178,.T.);
#729=ADVANCED_FACE('',(#498,#499),#20,.F.);
#730=ADVANCED_FACE('',(#500),#179,.F.);
#731=CLOSED_SHELL('',(#703,#704,#705,#706,#707,#708,#709,#710,#711,#712,
#713,#714,#715,#716,#717,#718,#719,#720,#721,#722,#723,#724,#725,#726,#727,
#728,#729,#730));
#732=MANIFOLD_SOLID_BREP('',#731);
#733=SHAPE_DEFINITION_REPRESENTATION(#1048,#734);
#734=SHAPE_REPRESENTATION('PK2N-1KQE-SL',(#735),#1043);
#735=AXIS2_PLACEMENT_3D('',#897,#767,#768);
#736=AXIS2_PLACEMENT_3D('',#898,#769,#770);
#737=AXIS2_PLACEMENT_3D('',#899,#771,#772);
#738=AXIS2_PLACEMENT_3D('',#901,#773,#774);
#739=AXIS2_PLACEMENT_3D('',#903,#775,#776);
#740=AXIS2_PLACEMENT_3D('',#916,#783,#784);
#741=AXIS2_PLACEMENT_3D('',#934,#794,#795);
#742=AXIS2_PLACEMENT_3D('',#959,#809,#810);
#743=AXIS2_PLACEMENT_3D('',#968,#816,#817);
#744=AXIS2_PLACEMENT_3D('',#970,#819,#820);
#745=AXIS2_PLACEMENT_3D('',#972,#822,#823);
#746=AXIS2_PLACEMENT_3D('',#978,#827,#828);
#747=AXIS2_PLACEMENT_3D('',#984,#832,#833);
#748=AXIS2_PLACEMENT_3D('',#988,#836,#837);
#749=AXIS2_PLACEMENT_3D('',#992,#840,#841);
#750=AXIS2_PLACEMENT_3D('',#994,#843,#844);
#751=AXIS2_PLACEMENT_3D('',#995,#845,#846);
#752=AXIS2_PLACEMENT_3D('',#1001,#850,#851);
#753=AXIS2_PLACEMENT_3D('',#1007,#855,#856);
#754=AXIS2_PLACEMENT_3D('',#1013,#860,#861);
#755=AXIS2_PLACEMENT_3D('',#1015,#863,#864);
#756=AXIS2_PLACEMENT_3D('',#1017,#866,#867);
#757=AXIS2_PLACEMENT_3D('',#1018,#868,#869);
#758=AXIS2_PLACEMENT_3D('',#1024,#873,#874);
#759=AXIS2_PLACEMENT_3D('',#1028,#877,#878);
#760=AXIS2_PLACEMENT_3D('',#1032,#881,#882);
#761=AXIS2_PLACEMENT_3D('',#1034,#884,#885);
#762=AXIS2_PLACEMENT_3D('',#1035,#886,#887);
#763=AXIS2_PLACEMENT_3D('',#1037,#889,#890);
#764=AXIS2_PLACEMENT_3D('',#1038,#891,#892);
#765=AXIS2_PLACEMENT_3D('',#1039,#893,#894);
#766=AXIS2_PLACEMENT_3D('',#1041,#895,#896);
#767=DIRECTION('',(0.,0.,1.));
#768=DIRECTION('',(1.,0.,0.));
#769=DIRECTION('',(0.,0.,-1.));
#770=DIRECTION('',(-1.,0.,0.));
#771=DIRECTION('',(0.,0.,-1.));
#772=DIRECTION('',(1.,0.,0.));
#773=DIRECTION('',(0.,0.,1.));
#774=DIRECTION('',(1.,0.,0.));
#775=DIRECTION('',(1.,0.,0.));
#776=DIRECTION('',(0.,0.,-1.));
#777=DIRECTION('',(-5.11097805561125E-16,-1.,0.));
#778=DIRECTION('',(0.,0.,-1.));
#779=DIRECTION('',(0.,-1.,0.));
#780=DIRECTION('',(0.,0.,-1.));
#781=DIRECTION('',(0.,-1.,0.));
#782=DIRECTION('',(0.,0.,1.));
#783=DIRECTION('',(0.,-1.,0.));
#784=DIRECTION('',(0.,0.,-1.));
#785=DIRECTION('',(-1.,2.55548902780562E-16,0.));
#786=DIRECTION('',(0.,0.,1.));
#787=DIRECTION('',(-1.,0.,0.));
#788=DIRECTION('',(0.,0.,-1.));
#789=DIRECTION('',(-1.,0.,0.));
#790=DIRECTION('',(0.,0.,-1.));
#791=DIRECTION('',(1.,0.,0.));
#792=DIRECTION('',(0.,0.,1.));
#793=DIRECTION('',(-1.,0.,0.));
#794=DIRECTION('',(0.,0.,1.));
#795=DIRECTION('',(1.,0.,0.));
#796=DIRECTION('',(-1.,-1.10257848049373E-16,0.));
#797=DIRECTION('',(1.80700362080917E-16,-1.,0.));
#798=DIRECTION('',(1.,1.10257848049373E-16,0.));
#799=DIRECTION('',(-1.80700362080917E-16,1.,0.));
#800=DIRECTION('',(-1.,1.47010464065831E-16,0.));
#801=DIRECTION('',(0.,-1.,0.));
#802=DIRECTION('',(1.,0.,0.));
#803=DIRECTION('',(0.,1.,0.));
#804=DIRECTION('',(-1.,0.,0.));
#805=DIRECTION('',(0.,-1.,0.));
#806=DIRECTION('',(0.,1.,0.));
#807=DIRECTION('',(1.,0.,0.));
#808=DIRECTION('',(0.,1.,0.));
#809=DIRECTION('',(0.,1.,0.));
#810=DIRECTION('',(0.,0.,1.));
#811=DIRECTION('',(0.,0.,1.));
#812=DIRECTION('',(1.,0.,0.));
#813=DIRECTION('',(0.,0.,-1.));
#814=DIRECTION('',(0.,0.,-1.));
#815=DIRECTION('',(1.,0.,0.));
#816=DIRECTION('',(-1.,0.,0.));
#817=DIRECTION('',(0.,0.,1.));
#818=DIRECTION('',(0.,1.,0.));
#819=DIRECTION('',(0.,0.,1.));
#820=DIRECTION('',(1.,0.,0.));
#821=DIRECTION('',(0.707106781186547,0.707106781186548,0.));
#822=DIRECTION('',(0.,0.,-1.));
#823=DIRECTION('',(-1.,0.,0.));
#824=DIRECTION('',(0.,1.,0.));
#825=DIRECTION('',(0.,-1.,0.));
#826=DIRECTION('',(1.,1.47010464065831E-16,0.));
#827=DIRECTION('',(-1.,0.,0.));
#828=DIRECTION('',(0.,0.,1.));
#829=DIRECTION('',(0.,0.,1.));
#830=DIRECTION('',(0.,-1.,0.));
#831=DIRECTION('',(0.,0.,1.));
#832=DIRECTION('',(0.,1.,0.));
#833=DIRECTION('',(0.,0.,1.));
#834=DIRECTION('',(0.,0.,1.));
#835=DIRECTION('',(-1.,0.,0.));
#836=DIRECTION('',(1.,0.,0.));
#837=DIRECTION('',(0.,0.,-1.));
#838=DIRECTION('',(0.,0.,1.));
#839=DIRECTION('',(0.,1.,0.));
#840=DIRECTION('',(0.,0.,-1.));
#841=DIRECTION('',(-1.,0.,0.));
#842=DIRECTION('',(1.,1.47010464065831E-16,0.));
#843=DIRECTION('',(1.47010464065831E-16,-1.,0.));
#844=DIRECTION('',(1.,1.47010464065831E-16,0.));
#845=DIRECTION('',(0.,0.,1.));
#846=DIRECTION('',(1.,0.,0.));
#847=DIRECTION('',(0.,-1.,0.));
#848=DIRECTION('',(1.,-1.47010464065831E-16,0.));
#849=DIRECTION('',(0.,1.,0.));
#850=DIRECTION('',(-1.,0.,0.));
#851=DIRECTION('',(0.,0.,1.));
#852=DIRECTION('',(0.,0.,1.));
#853=DIRECTION('',(0.,-1.,0.));
#854=DIRECTION('',(0.,0.,1.));
#855=DIRECTION('',(1.,0.,0.));
#856=DIRECTION('',(0.,0.,-1.));
#857=DIRECTION('',(0.,0.,1.));
#858=DIRECTION('',(0.,1.,0.));
#859=DIRECTION('',(0.,0.,1.));
#860=DIRECTION('',(1.47010464065831E-16,1.,0.));
#861=DIRECTION('',(-1.,1.47010464065831E-16,0.));
#862=DIRECTION('',(-1.,1.47010464065831E-16,0.));
#863=DIRECTION('',(0.,0.,1.));
#864=DIRECTION('',(1.,0.,0.));
#865=DIRECTION('',(1.,-1.47010464065831E-16,0.));
#866=DIRECTION('',(-1.47010464065831E-16,-1.,0.));
#867=DIRECTION('',(1.,-1.47010464065831E-16,0.));
#868=DIRECTION('',(-1.,-1.80700362080917E-16,0.));
#869=DIRECTION('',(1.80700362080917E-16,-1.,0.));
#870=DIRECTION('',(0.,0.,1.));
#871=DIRECTION('',(1.80700362080917E-16,-1.,0.));
#872=DIRECTION('',(0.,0.,1.));
#873=DIRECTION('',(1.10257848049373E-16,-1.,0.));
#874=DIRECTION('',(1.,1.10257848049373E-16,0.));
#875=DIRECTION('',(1.,1.10257848049373E-16,0.));
#876=DIRECTION('',(0.,0.,1.));
#877=DIRECTION('',(1.,1.80700362080917E-16,0.));
#878=DIRECTION('',(-1.80700362080917E-16,1.,0.));
#879=DIRECTION('',(-1.80700362080917E-16,1.,0.));
#880=DIRECTION('',(0.,0.,1.));
#881=DIRECTION('',(-1.10257848049373E-16,1.,0.));
#882=DIRECTION('',(-1.,-1.10257848049373E-16,0.));
#883=DIRECTION('',(-1.,-1.10257848049373E-16,0.));
#884=DIRECTION('',(0.,0.,1.));
#885=DIRECTION('',(1.,0.,0.));
#886=DIRECTION('',(0.707106781186548,-0.707106781186547,0.));
#887=DIRECTION('',(0.707106781186547,0.707106781186548,0.));
#888=DIRECTION('',(0.707106781186547,0.707106781186548,0.));
#889=DIRECTION('',(0.,0.,1.));
#890=DIRECTION('',(1.,0.,0.));
#891=DIRECTION('',(0.,0.,1.));
#892=DIRECTION('',(1.,0.,0.));
#893=DIRECTION('',(0.,0.,1.));
#894=DIRECTION('',(1.,0.,0.));
#895=DIRECTION('',(0.,0.,-1.));
#896=DIRECTION('',(-1.,0.,0.));
#897=CARTESIAN_POINT('',(0.,0.,0.));
#898=CARTESIAN_POINT('',(0.,0.,0.6));
#899=CARTESIAN_POINT('',(0.,0.,0.6));
#900=CARTESIAN_POINT('',(1.5,0.,0.6));
#901=CARTESIAN_POINT('',(0.,0.,1.29629467405013));
#902=CARTESIAN_POINT('',(1.38971775774961,0.,1.29629467405013));
#903=CARTESIAN_POINT('',(-1.725,1.685,0.6));
#904=CARTESIAN_POINT('',(-1.725,1.685,0.4));
#905=CARTESIAN_POINT('',(-1.725,1.685,0.4));
#906=CARTESIAN_POINT('',(-1.725,0.907182540694797,0.4));
#907=CARTESIAN_POINT('',(-1.725,1.685,0.6));
#908=CARTESIAN_POINT('',(-1.725,1.685,0.));
#909=CARTESIAN_POINT('',(-1.725,1.685,0.));
#910=CARTESIAN_POINT('',(-1.725,-1.685,0.));
#911=CARTESIAN_POINT('',(-1.725,-1.685,0.6));
#912=CARTESIAN_POINT('',(-1.725,-1.685,0.6));
#913=CARTESIAN_POINT('',(-1.725,1.685,0.6));
#914=CARTESIAN_POINT('',(-1.725,0.907182540694798,0.6));
#915=CARTESIAN_POINT('',(-1.725,0.907182540694798,0.4));
#916=CARTESIAN_POINT('',(1.725,1.685,0.6));
#917=CARTESIAN_POINT('',(-0.876471862576143,1.685,0.4));
#918=CARTESIAN_POINT('',(-0.947182540694798,1.685,0.4));
#919=CARTESIAN_POINT('',(-0.947182540694798,1.685,0.6));
#920=CARTESIAN_POINT('',(-0.947182540694798,1.685,0.6));
#921=CARTESIAN_POINT('',(1.725,1.685,0.6));
#922=CARTESIAN_POINT('',(1.725,1.685,0.6));
#923=CARTESIAN_POINT('',(1.725,1.685,0.6));
#924=CARTESIAN_POINT('',(1.725,1.685,0.));
#925=CARTESIAN_POINT('',(1.725,1.685,0.));
#926=CARTESIAN_POINT('',(1.475,1.685,0.));
#927=CARTESIAN_POINT('',(1.475,1.685,0.6));
#928=CARTESIAN_POINT('',(1.475,1.685,0.3));
#929=CARTESIAN_POINT('',(1.725,1.685,0.3));
#930=CARTESIAN_POINT('',(-1.475,1.685,0.3));
#931=CARTESIAN_POINT('',(-1.475,1.685,0.6));
#932=CARTESIAN_POINT('',(-1.475,1.685,0.));
#933=CARTESIAN_POINT('',(1.725,1.685,0.));
#934=CARTESIAN_POINT('',(0.,0.,0.));
#935=CARTESIAN_POINT('',(1.475,0.6,0.));
#936=CARTESIAN_POINT('',(1.475,0.6,0.));
#937=CARTESIAN_POINT('',(-1.475,0.6,0.));
#938=CARTESIAN_POINT('',(-1.475,-0.6,0.));
#939=CARTESIAN_POINT('',(-1.475,-0.6,0.));
#940=CARTESIAN_POINT('',(-1.475,-0.6,0.));
#941=CARTESIAN_POINT('',(1.475,-0.6,0.));
#942=CARTESIAN_POINT('',(1.475,0.6,0.));
#943=CARTESIAN_POINT('',(-1.69062033675706E-16,-1.15,0.));
#944=CARTESIAN_POINT('',(1.475,-1.15,0.));
#945=CARTESIAN_POINT('',(-1.475,-1.15,0.));
#946=CARTESIAN_POINT('',(-1.475,0.,0.));
#947=CARTESIAN_POINT('',(-1.475,-1.685,0.));
#948=CARTESIAN_POINT('',(-1.725,-1.685,0.));
#949=CARTESIAN_POINT('',(-1.475,0.,0.));
#950=CARTESIAN_POINT('',(-1.475,1.15,0.));
#951=CARTESIAN_POINT('',(0.,1.15,0.));
#952=CARTESIAN_POINT('',(1.475,1.15,0.));
#953=CARTESIAN_POINT('',(1.475,0.,0.));
#954=CARTESIAN_POINT('',(1.725,-1.685,0.));
#955=CARTESIAN_POINT('',(1.725,-1.685,0.));
#956=CARTESIAN_POINT('',(-1.725,-1.685,0.));
#957=CARTESIAN_POINT('',(1.475,-1.685,0.));
#958=CARTESIAN_POINT('',(1.475,0.,0.));
#959=CARTESIAN_POINT('',(-1.725,-1.685,0.6));
#960=CARTESIAN_POINT('',(-1.475,-1.685,0.6));
#961=CARTESIAN_POINT('',(-1.475,-1.685,0.3));
#962=CARTESIAN_POINT('',(-1.725,-1.685,0.3));
#963=CARTESIAN_POINT('',(1.475,-1.685,0.3));
#964=CARTESIAN_POINT('',(1.475,-1.685,0.6));
#965=CARTESIAN_POINT('',(1.725,-1.685,0.6));
#966=CARTESIAN_POINT('',(1.725,-1.685,0.6));
#967=CARTESIAN_POINT('',(-1.725,-1.685,0.6));
#968=CARTESIAN_POINT('',(1.725,-1.685,0.6));
#969=CARTESIAN_POINT('',(1.725,-1.685,0.6));
#970=CARTESIAN_POINT('',(0.,0.,0.6));
#971=CARTESIAN_POINT('',(-1.3360912703474,1.2960912703474,0.6));
#972=CARTESIAN_POINT('',(0.,0.,0.3));
#973=CARTESIAN_POINT('',(-1.475,1.685,0.3));
#974=CARTESIAN_POINT('',(-1.475,1.73,0.3));
#975=CARTESIAN_POINT('',(1.475,1.685,0.3));
#976=CARTESIAN_POINT('',(1.475,1.73,0.3));
#977=CARTESIAN_POINT('',(-1.475,1.73,0.3));
#978=CARTESIAN_POINT('',(1.475,1.685,-0.0005));
#979=CARTESIAN_POINT('',(1.475,1.15,-0.0005));
#980=CARTESIAN_POINT('',(1.475,1.15,-0.0005));
#981=CARTESIAN_POINT('',(1.475,1.685,-0.0005));
#982=CARTESIAN_POINT('',(1.475,1.73,-0.0005));
#983=CARTESIAN_POINT('',(1.475,1.73,-0.0005));
#984=CARTESIAN_POINT('',(-1.475,1.15,-0.0005));
#985=CARTESIAN_POINT('',(-1.475,1.15,-0.0005));
#986=CARTESIAN_POINT('',(-1.475,1.15,-0.0005));
#987=CARTESIAN_POINT('',(-1.475,1.15,-0.0005));
#988=CARTESIAN_POINT('',(-1.475,1.685,-0.0005));
#989=CARTESIAN_POINT('',(-1.475,1.73,-0.0005));
#990=CARTESIAN_POINT('',(-1.475,1.73,-0.0005));
#991=CARTESIAN_POINT('',(-1.475,1.685,-0.0005));
#992=CARTESIAN_POINT('',(0.,0.,-0.0005));
#993=CARTESIAN_POINT('',(-1.475,1.73,-0.0005));
#994=CARTESIAN_POINT('',(-1.475,1.73,-0.0005));
#995=CARTESIAN_POINT('',(0.,0.,0.3));
#996=CARTESIAN_POINT('',(-1.475,-1.685,0.3));
#997=CARTESIAN_POINT('',(-1.475,-1.73,0.3));
#998=CARTESIAN_POINT('',(-1.475,-1.73,0.3));
#999=CARTESIAN_POINT('',(1.475,-1.73,0.3));
#1000=CARTESIAN_POINT('',(1.475,-1.685,0.3));
#1001=CARTESIAN_POINT('',(-1.475,-1.685,-0.0005));
#1002=CARTESIAN_POINT('',(-1.475,-1.15,-0.0005));
#1003=CARTESIAN_POINT('',(-1.475,-1.15,-0.0005));
#1004=CARTESIAN_POINT('',(-1.475,-1.685,-0.0005));
#1005=CARTESIAN_POINT('',(-1.475,-1.73,-0.0005));
#1006=CARTESIAN_POINT('',(-1.475,-1.73,-0.0005));
#1007=CARTESIAN_POINT('',(1.475,-1.685,-0.0005));
#1008=CARTESIAN_POINT('',(1.475,-1.73,-0.0005));
#1009=CARTESIAN_POINT('',(1.475,-1.73,-0.0005));
#1010=CARTESIAN_POINT('',(1.475,-1.73,-0.0005));
#1011=CARTESIAN_POINT('',(1.475,-1.15,-0.0005));
#1012=CARTESIAN_POINT('',(1.475,-1.15,-0.0005));
#1013=CARTESIAN_POINT('',(1.475,-1.15,-0.0005));
#1014=CARTESIAN_POINT('',(1.475,-1.15,-0.0005));
#1015=CARTESIAN_POINT('',(0.,0.,-0.0005));
#1016=CARTESIAN_POINT('',(-1.475,-1.73,-0.0005));
#1017=CARTESIAN_POINT('',(-1.475,-1.73,-0.0005));
#1018=CARTESIAN_POINT('',(-1.475,-0.6,-0.0005));
#1019=CARTESIAN_POINT('',(-1.475,0.6,-0.0005));
#1020=CARTESIAN_POINT('',(-1.475,0.6,-0.0005));
#1021=CARTESIAN_POINT('',(-1.475,-0.6,-0.0005));
#1022=CARTESIAN_POINT('',(-1.475,-0.6,-0.0005));
#1023=CARTESIAN_POINT('',(-1.475,-0.6,-0.0005));
#1024=CARTESIAN_POINT('',(-1.475,-0.6,-0.0005));
#1025=CARTESIAN_POINT('',(-1.475,-0.6,-0.0005));
#1026=CARTESIAN_POINT('',(1.475,-0.6,-0.0005));
#1027=CARTESIAN_POINT('',(1.475,-0.6,-0.0005));
#1028=CARTESIAN_POINT('',(1.475,0.6,-0.0005));
#1029=CARTESIAN_POINT('',(1.475,0.6,-0.0005));
#1030=CARTESIAN_POINT('',(1.475,0.6,-0.0005));
#1031=CARTESIAN_POINT('',(1.475,0.6,-0.0005));
#1032=CARTESIAN_POINT('',(1.475,0.6,-0.0005));
#1033=CARTESIAN_POINT('',(1.475,0.6,-0.0005));
#1034=CARTESIAN_POINT('',(0.,0.,-0.0005));
#1035=CARTESIAN_POINT('',(-1.3360912703474,1.2960912703474,0.4));
#1036=CARTESIAN_POINT('',(-1.3360912703474,1.2960912703474,0.4));
#1037=CARTESIAN_POINT('',(0.,0.,0.4));
#1038=CARTESIAN_POINT('',(0.,0.,0.993391975097511));
#1039=CARTESIAN_POINT('',(0.,0.,2.5));
#1040=CARTESIAN_POINT('',(0.121725991287628,0.,2.5));
#1041=CARTESIAN_POINT('',(0.,0.,2.5));
#1042=MECHANICAL_DESIGN_GEOMETRIC_PRESENTATION_REPRESENTATION('',(#502,
#503,#504,#505,#506,#507,#508,#509,#510,#511,#512,#513,#514,#515,#516,#517,
#518,#519,#520,#521,#522,#523,#524,#525,#526,#527,#528,#529),#1043);
#1043=(
GEOMETRIC_REPRESENTATION_CONTEXT(3)
GLOBAL_UNCERTAINTY_ASSIGNED_CONTEXT((#1044))
GLOBAL_UNIT_ASSIGNED_CONTEXT((#1047,#1046,#1045))
REPRESENTATION_CONTEXT('PK2N-1KQE-SL','TOP_LEVEL_ASSEMBLY_PART')
);
#1044=UNCERTAINTY_MEASURE_WITH_UNIT(LENGTH_MEASURE(0.005),#1047,
'DISTANCE_ACCURACY_VALUE','Maximum Tolerance applied to model');
#1045=(
NAMED_UNIT(*)
SI_UNIT($,.STERADIAN.)
SOLID_ANGLE_UNIT()
);
#1046=(
NAMED_UNIT(*)
PLANE_ANGLE_UNIT()
SI_UNIT($,.RADIAN.)
);
#1047=(
LENGTH_UNIT()
NAMED_UNIT(*)
SI_UNIT(.MILLI.,.METRE.)
);
#1048=PRODUCT_DEFINITION_SHAPE('','',#1049);
#1049=PRODUCT_DEFINITION('','',#1051,#1050);
#1050=PRODUCT_DEFINITION_CONTEXT('',#1057,'design');
#1051=PRODUCT_DEFINITION_FORMATION_WITH_SPECIFIED_SOURCE('','',#1053,
 .NOT_KNOWN.);
#1052=PRODUCT_RELATED_PRODUCT_CATEGORY('','',(#1053));
#1053=PRODUCT('PK2N-1KQE-SL','PK2N-1KQE-SL','PK2N-1KQE-SL',(#1055));
#1054=PRODUCT_CATEGORY('','');
#1055=PRODUCT_CONTEXT('',#1057,'mechanical');
#1056=APPLICATION_PROTOCOL_DEFINITION('international standard',
'automotive_design',2010,#1057);
#1057=APPLICATION_CONTEXT(
'core data for automotive mechanical design processes');
ENDSEC;
END-ISO-10303-21;
